Coordinates
version=1
nRows=9
nColumns=63
inDegrees=yes

Units are S.I. units (second, meters, Newtons, ...)
If the header above contains a line with 'inDegrees', this indicates whether rotational values are in degrees (yes) or radians (no).

endheader
time	pelvis_tilt	pelvis_list	pelvis_rotation	pelvis_tx	pelvis_ty	pelvis_tz	hip_flexion_r	hip_adduction_r	hip_rotation_r	knee_angle_r	knee_angle_r_beta	ankle_angle_r	subtalar_angle_r	mtp_angle_r	hip_flexion_l	hip_adduction_l	hip_rotation_l	knee_angle_l	knee_angle_l_beta	ankle_angle_l	subtalar_angle_l	mtp_angle_l	L5_S1_Flex_Ext	L5_S1_Lat_Bending	L5_S1_axial_rotation	L4_L5_Flex_Ext	L4_L5_Lat_Bending	L4_L5_axial_rotation	L3_L4_Flex_Ext	L3_L4_Lat_Bending	L3_L4_axial_rotation	L2_L3_Flex_Ext	L2_L3_Lat_Bending	L2_L3_axial_rotation	L1_L2_Flex_Ext	L1_L2_Lat_Bending	L1_L2_axial_rotation	L1_T12_Flex_Ext	L1_T12_Lat_Bending	L1_T12_axial_rotation	Abs_r3	Abs_r2	Abs_r1	Abs_t1	Abs_t2	neck_flexion	neck_bending	neck_rotation	arm_flex_r	arm_add_r	arm_rot_r	elbow_flex_r	pro_sup_r	wrist_flex_r	wrist_dev_r	arm_flex_l	arm_add_l	arm_rot_l	elbow_flex_l	pro_sup_l	wrist_flex_l	wrist_dev_l
      2.64285714	     -4.48032709	     -5.39137179	     73.92642713	      0.17990604	      0.98281067	      0.21671424	     -1.57646665	     -0.66882785	    -17.12739254	      7.81717008	      0.13643536	     13.19023824	     17.50973078	      0.00000000	     -2.00895412	      0.67361900	     -9.30296257	      7.01380469	      0.12241398	      8.74457016	    -13.62179990	      0.00000000	     -0.38915105	     -0.34996352	      1.34281032	     -0.72269242	     -0.46545148	      1.42673596	     -0.63933626	     -0.85090130	      1.42673596	     -0.44476074	     -0.85090130	      1.17495903	     -0.36136567	     -0.71364561	      1.09103338	     -0.22236091	     -0.54209349	      1.00710774	     -2.77966705	     -3.95885731	      7.46830815	      0.00000000	      0.00000000	      8.72115160	    -12.62712025	     -6.85811780	      6.55364494	    -16.05761523	     55.86352009	     28.68112042	     76.47066949	    -12.47217127	     -1.56746585	      0.52464701	    -20.39533330	     47.60053351	     27.18157297	     77.76982265	     -6.49228546	      1.67376019
      2.66071429	     -4.67236533	     -5.50172901	     73.92285604	      0.18011238	      0.98236620	      0.21678041	     -1.34215103	     -0.84754990	    -16.98730272	      7.96720812	      0.13905401	     13.47370026	     17.55893944	      0.00000000	     -1.73665421	      0.79340043	     -9.72033650	      7.11338437	      0.12415198	      8.88140305	    -13.06317113	      0.00000000	     -0.36928142	     -0.41171033	      1.27368905	     -0.68579252	     -0.54757474	      1.35329462	     -0.60669244	     -1.00103250	      1.35329462	     -0.42205173	     -1.00103250	      1.11447792	     -0.34291472	     -0.83955971	      1.03487236	     -0.21100740	     -0.63773930	      0.95526679	     -2.63774023	     -4.65734962	      7.08387640	      0.00000000	      0.00000000	     10.32238151	    -11.54663363	     -5.03254511	      6.65645342	    -15.77960427	     55.94069259	     28.96026600	     77.42660146	    -12.67944725	     -1.04358219	     -0.57727346	    -20.65917828	     46.14839584	     26.80929988	     76.14076535	     -6.87731017	      0.35181756
      2.67857143	     -4.66633594	     -5.67658098	     74.12172760	      0.17977402	      0.98177117	      0.21643894	     -1.28306865	     -0.78096874	    -16.82773618	      7.82467835	      0.13656640	     13.59342043	     17.64091457	      0.00000000	     -1.51452167	      0.73594033	     -9.69331086	      7.09664047	      0.12385974	      9.20345503	    -12.93270784	      0.00000000	     -0.34584184	     -0.44774189	      1.27564914	     -0.64226289	     -0.59549671	      1.35537721	     -0.56818356	     -1.08863962	      1.35537721	     -0.39526264	     -1.08863962	      1.11619299	     -0.32114874	     -0.91303525	      1.03646492	     -0.19761403	     -0.69355218	      0.95673685	     -2.47031370	     -5.06494576	      7.09477780	      0.00000000	      0.00000000	     11.67650144	    -11.22413340	     -5.02034756	      6.48231170	    -15.74637367	     55.94856434	     29.19589213	     77.54590452	    -12.66568471	     -1.05073140	     -0.88825032	    -20.78246009	     46.02853187	     26.26962197	     75.89692880	     -6.95308123	      0.26130142
      2.69642857	     -4.69412334	     -5.84251433	     74.40777665	      0.17943156	      0.98102194	      0.21610742	     -1.23107564	     -0.74937171	    -16.57329965	      7.71331966	      0.13462282	     13.82165328	     17.66360321	      0.00000000	     -1.17276372	      0.66221060	     -9.61693963	      7.34067028	      0.12811887	      9.79418457	    -12.64581526	      0.00000000	     -0.33569518	     -0.48639487	      1.26741171	     -0.62341952	     -0.64690517	      1.34662494	     -0.55151361	     -1.18262048	      1.34662494	     -0.38366602	     -1.18262048	      1.10898525	     -0.31172654	     -0.99185641	      1.02977201	     -0.19181623	     -0.75342565	      0.95055878	     -2.39783710	     -5.50219602	      7.04896370	      0.00000000	      0.00000000	     13.16125648	    -10.58377350	     -4.70167754	      6.26945814	    -15.68707295	     55.70647594	     29.47634708	     77.61625285	    -12.76231119	     -1.09098025	     -1.14239374	    -20.90414724	     45.71022955	     25.80455248	     75.44763627	     -7.17107584	     -0.45317114
      2.71428571	     -4.61030696	     -6.05762438	     75.00270493	      0.17896909	      0.98023358	      0.21541161	     -1.17548235	     -0.58103907	    -16.51771832	      7.68168129	      0.13407063	     13.95844265	     17.42070124	      0.00000000	     -0.52682927	      0.15861880	    -12.13629970	      8.29522108	      0.14477892	     11.87472519	     -8.07410411	      0.00000000	     -0.32263512	     -0.50329542	      1.19722078	     -0.59916568	     -0.66938291	      1.27204708	     -0.53005724	     -1.22371249	      1.27204708	     -0.36873968	     -1.22371249	      1.04756818	     -0.29959897	     -1.02632002	      0.97274189	     -0.18435371	     -0.77960461	      0.89791559	     -2.30455040	     -5.69337847	      6.65858283	      0.00000000	      0.00000000	     14.00501186	     -9.64616816	     -3.30475665	      5.41403186	    -15.38642029	     52.26086546	     29.92798155	     80.83119190	    -12.22220016	     -0.41258938	     -0.85632993	    -21.11167041	     50.00108850	     24.48437091	     70.02265365	     -9.01991016	     -4.84812899
      2.73214286	     -4.54897209	     -6.23901656	     75.56892620	      0.17821120	      0.97927019	      0.21424815	     -1.25886867	     -0.46390795	    -16.45691127	      7.50450092	      0.13097825	     14.12427638	     17.24815143	      0.00000000	     -0.04521930	     -0.02272347	    -11.65681437	      8.94947879	      0.15619787	     12.70952669	     -8.19954447	      0.00000000	     -0.31035671	     -0.52516040	      1.13270049	     -0.57636345	     -0.69846334	      1.20349427	     -0.50988504	     -1.27687501	      1.20349427	     -0.35470669	     -1.27687501	      0.99111292	     -0.28819724	     -1.07090710	      0.92031914	     -0.17733783	     -0.81347347	      0.84952536	     -2.21684697	     -5.94071953	      6.29974029	      0.00000000	      0.00000000	     14.37178991	     -8.91659941	     -2.26911097	      5.11255143	    -15.26618222	     51.81683647	     30.00521194	     80.63019394	    -12.35862667	     -0.65918038	     -1.14224278	    -21.10789075	     50.54944373	     23.68051892	     70.08876752	    -10.12721874	     -7.22233285
      2.75000000	     -4.49410931	     -6.36433971	     76.23114549	      0.17724731	      0.97829234	      0.21302274	     -1.44407994	     -0.37249380	    -16.44758047	      7.25536875	      0.12663007	     14.36494088	     17.12427500	      0.00000000	      0.44940140	     -0.18830626	    -11.21228804	      9.77505711	      0.17060693	     13.60028519	     -8.29211794	      0.00000000	     -0.30915204	     -0.54979189	      1.05727732	     -0.57412625	     -0.73122321	      1.12335715	     -0.50790589	     -1.33676400	      1.12335715	     -0.35332987	     -1.33676400	      0.92511765	     -0.28707858	     -1.12113562	      0.85903782	     -0.17664948	     -0.85162764	      0.79295799	     -2.20824211	     -6.21935580	      5.88025926	      0.00000000	      0.00000000	     13.98252290	     -8.09880206	     -0.77668272	      4.80364455	    -15.12273802	     51.30000443	     30.04061147	     80.43833652	    -12.39838643	     -0.90175982	     -1.39054347	    -21.16490101	     51.43259966	     22.88753516	     70.54761364	    -11.42094287	     -9.47858009
      2.76785714	     -4.41144530	     -6.51258196	     77.11796975	      0.17583841	      0.97726831	      0.21206367	     -1.60959372	     -0.24377404	    -16.77631600	      6.99966581	      0.12216721	     14.69125315	     17.01161645	      0.00000000	      1.02412931	     -0.37650162	    -10.47974601	     10.67373061	      0.18629174	     14.52289839	     -8.39879225	      0.00000000	     -0.31269581	     -0.57236543	      0.94790755	     -0.58070738	     -0.76124602	      1.00715177	     -0.51372794	     -1.39164930	      1.00715177	     -0.35738004	     -1.39164930	      0.82941911	     -0.29036933	     -1.16716758	      0.77017488	     -0.17867438	     -0.88659405	      0.71093066	     -2.23355487	     -6.47471220	      5.27197741	      0.00000000	      0.00000000	     12.98436871	     -7.09985526	      1.36239279	      4.54301740	    -14.95845335	     50.75718129	     29.98559415	     80.33167184	    -12.31005241	     -1.13080637	     -1.50126781	    -21.18712561	     52.81227766	     21.94721500	     71.24402537	    -13.26400031	    -11.48178405
      2.78571429	     -4.32698708	     -6.59886208	     78.11269579	      0.17416962	      0.97639332	      0.21149176	     -1.79476760	     -0.12632731	    -17.25672415	      6.76635888	      0.11809524	     15.06722944	     16.97652260	      0.00000000	      1.61807500	     -0.52802467	     -9.54227648	     11.65545568	      0.20342608	     15.37822799	     -8.64456888	      0.00000000	     -0.33704431	     -0.59778204	      0.83672058	     -0.62592500	     -0.79505012	      0.88901562	     -0.55373010	     -1.45344726	      0.88901562	     -0.38520795	     -1.45344726	      0.73213051	     -0.31297935	     -1.21899714	      0.67983547	     -0.19258712	     -0.92596439	      0.62754044	     -2.40747383	     -6.76223003	      4.65358886	      0.00000000	      0.00000000	     11.45573318	     -5.87599326	      4.16937374	      4.33354090	    -14.82791019	     50.26365181	     29.94264000	     80.39577435	    -12.30491725	     -1.37062868	     -1.43339115	    -21.29547021	     54.46144179	     21.24946359	     72.01187299	    -15.13140912	    -12.43255749
